<svg id="Group_6" data-name="Group 6" xmlns="http://www.w3.org/2000/svg" viewBox="0 0 125 30">
  <defs>
    <style>
      .cls-1 {
        fill: #8e38b6;
      }

      .cls-2 {
        fill: #ed2939;
      }

      .cls-3 {
        fill: #fecb00;
      }

      .cls-4 {
        fill: #00a1de;
      }
    </style>
  </defs>
  <g id="Group_2" data-name="Group 2">
    <path id="Path_1" data-name="Path 1" class="cls-1" d="M19.46,46.4a3.154,3.154,0,0,0-3.183,3.2v8.516a6.082,6.082,0,0,1-1.282,4.149,4.024,4.024,0,0,1-1.829,1.157,6.044,6.044,0,0,1-1.844.26A4.56,4.56,0,0,1,7.663,62.2a6.4,6.4,0,0,1-1.282-4.28V49.61a3.154,3.154,0,0,0-3.183-3.2A3.157,3.157,0,0,0,0,49.61v8.472c0,3.73,1.023,6.651,3.025,8.646,1.945,1.952,4.71,2.935,8.225,2.935A12.02,12.02,0,0,0,18.5,67.61a10.3,10.3,0,0,0,1.052-.882,9.049,9.049,0,0,0,1.368-1.735,11.152,11.152,0,0,0,1.239-3.21,17.44,17.44,0,0,0,.375-3.6v-.029c.014-1.041.043-2.082.086-3.137q.043-1.171.043-2.342V49.61A3.178,3.178,0,0,0,19.46,46.4Z" transform="translate(0 -39.692)"/>
    <g id="Group_1" data-name="Group 1" transform="translate(39.352)">
      <path id="Path_2" data-name="Path 2" class="cls-2" d="M276.584,6.593A3.3,3.3,0,1,0,273.3,3.3,3.289,3.289,0,0,0,276.584,6.593Z" transform="translate(-273.286)"/>
      <path id="Path_3" data-name="Path 3" class="cls-2" d="M276.383,60.4a3.154,3.154,0,0,0-3.183,3.2V68.93a6.464,6.464,0,0,0,.792.188c2.074.463,3.212,3.007,2.938,4.988a7.029,7.029,0,0,1-1.051,2.747,8.944,8.944,0,0,1-1.5,1.88c-.288.275-1.037.969-.994,1.07a3.07,3.07,0,0,0,3,1.865,3.154,3.154,0,0,0,3.183-3.2V63.6A3.154,3.154,0,0,0,276.383,60.4Z" transform="translate(-273.2 -51.667)"/>
    </g>
    <path id="Path_4" data-name="Path 4" class="cls-3" d="M175.184,97.717a2.288,2.288,0,0,0-1.3,1.214c-.1.2-.2.419-.3.636a7.326,7.326,0,0,1-2.391,3.051,4.336,4.336,0,0,1-3.687.708c-.13-.043-.274-.116-.288-.246-.014-.087,1.268-2,1.44-2.241.5-.752,1.008-1.489,1.512-2.241.72-1.07,2.319-2.66,1.988-4.092a2.466,2.466,0,0,0-1.138-1.46A8.784,8.784,0,0,0,166.21,91.5a6.937,6.937,0,0,0-1.354.13,6.71,6.71,0,0,0-3.356,1.764c-.029,1.041-.072,2.082-.086,3.137v.029a17.653,17.653,0,0,1-.375,3.6,10.378,10.378,0,0,1-1.239,3.21,9.8,9.8,0,0,0,2.492,2.79,10.413,10.413,0,0,0,1.613,1.012,9.538,9.538,0,0,0,6.021.882,9.026,9.026,0,0,0,4.177-1.966,9.311,9.311,0,0,0,1.772-1.981,11.863,11.863,0,0,0,1.959-3.759C178.18,98.7,176.97,97.1,175.184,97.717Zm-11.451,3.007a4.128,4.128,0,0,1-1.095-2.14,2.918,2.918,0,0,1,.547-2.169,2.872,2.872,0,0,1,2.506-1.316,4.343,4.343,0,0,1,1.671.4Z" transform="translate(-136.782 -78.271)"/>
  </g>
  <g id="Group_5" data-name="Group 5" transform="translate(52.084 3.214)">
    <g id="Group_3" data-name="Group 3" transform="translate(0.001)">
      <path id="Path_5" data-name="Path 5" class="cls-4" d="M475.224,48.358A1.229,1.229,0,1,0,474,47.129,1.226,1.226,0,0,0,475.224,48.358Z" transform="translate(-457.81 -42.477)"/>
      <path id="Path_6" data-name="Path 6" class="cls-4" d="M361.629,26.807a.964.964,0,0,1,.259-.723,1.021,1.021,0,0,1,.749-.246,1.128,1.128,0,0,1,.85.26,1.213,1.213,0,0,1,.245.839c-.014.477-.014,2.1-.014,4.872a2.68,2.68,0,0,0,.562,1.851,2.017,2.017,0,0,0,1.584.622,1.771,1.771,0,0,0,1.484-.694,3.119,3.119,0,0,0,.562-1.793c.014-.492.029-1.012.029-1.576s0-1.186-.014-1.865-.014-1.186-.014-1.518c0-.665.36-1,1.066-1a1.055,1.055,0,0,1,.807.289,1.322,1.322,0,0,1,.259.911l.014,4.467a5.072,5.072,0,0,1-1.124,3.441,3.933,3.933,0,0,1-3.14,1.3,4.108,4.108,0,0,1-3.054-1.157,4.38,4.38,0,0,1-1.138-3.224C361.614,29.5,361.629,27.819,361.629,26.807Zm4.393-1.186a.8.8,0,0,1-.533-.058.609.609,0,0,1-.389-.361.762.762,0,0,1,0-.506l.749-1.851a.878.878,0,0,1,.547-.578.95.95,0,0,1,.706.072.828.828,0,0,1,.49.52.785.785,0,0,1-.1.622,18.519,18.519,0,0,1-1.023,1.807A.8.8,0,0,1,366.022,25.621Z" transform="translate(-361.6 -22.227)"/>
      <path id="Path_7" data-name="Path 7" class="cls-4" d="M429.1,58.778a.853.853,0,0,1,.23-.622.769.769,0,0,1,.591-.246h.619l.029-.94q.022-1.171,1.124-1.171a.757.757,0,0,1,.835.867c0,.159-.014.578-.029,1.243l1.095-.014c.562,0,.85.289.85.882a1.038,1.038,0,0,1-.187.636.638.638,0,0,1-.547.246h-1.2v2.3c0,.752.216,1.142.648,1.142a1.533,1.533,0,0,0,.36-.043,1.262,1.262,0,0,1,.288-.043.641.641,0,0,1,.519.246.931.931,0,0,1,.2.564.959.959,0,0,1-.375.867,2.467,2.467,0,0,1-1.282.26c-1.556,0-2.348-.925-2.348-2.776,0-.275,0-.694.014-1.258s.014-.983.014-1.243h-.677C429.345,59.675,429.1,59.371,429.1,58.778Z" transform="translate(-419.377 -50.946)"/>
      <path id="Path_8" data-name="Path 8" class="cls-4" d="M475.6,69.917a1.157,1.157,0,0,1,.691-.217c.706,0,1.066.318,1.066.954.014.39.014.954.014,1.706s-.014,1.316-.014,1.692l.014,1.836a.864.864,0,0,1-.288.694,1.18,1.18,0,0,1-.763.246,1.263,1.263,0,0,1-.735-.2.711.711,0,0,1-.288-.607V70.6A.785.785,0,0,1,475.6,69.917Z" transform="translate(-458.922 -62.836)"/>
      <path id="Path_9" data-name="Path 9" class="cls-4" d="M501.147,45.846a1.221,1.221,0,0,1,.778-.246,1.153,1.153,0,0,1,.807.26.956.956,0,0,1,.259.781c-.043,2.14-.058,4.12-.058,6.81,0,.217.014.535.029.94s.029.694.029.882a.98.98,0,0,1-.23.68,1.254,1.254,0,0,1-.749.275c-.763.072-1.152-.4-1.167-1.417-.043-1.489-.029-3.961.014-8.241A.807.807,0,0,1,501.147,45.846Z" transform="translate(-480.765 -42.221)"/>
    </g>
    <path id="Path_10" data-name="Path 10" class="cls-4" d="M559.922,74.46a1.554,1.554,0,0,0,1.023.361,2.386,2.386,0,0,0,1.268-.347,1.458,1.458,0,0,1,.677-.217.756.756,0,0,1,.591.289,1.024,1.024,0,0,1,.245.694.918.918,0,0,1-.518.81,4.532,4.532,0,0,1-2.434.564,3.375,3.375,0,0,1-2.449-1,3.243,3.243,0,0,1-1.023-2.4,3.859,3.859,0,0,1,1.023-2.718,3.364,3.364,0,0,1,2.521-1.1,3.176,3.176,0,0,1,2.247.853,2.634,2.634,0,0,1,.893,1.966,1.543,1.543,0,0,1-.23.969,1.292,1.292,0,0,1-.965.3c-.634.014-1.772.029-3.4.043A1.486,1.486,0,0,0,559.922,74.46Zm-.043-3.036a1.3,1.3,0,0,0-.461.867c.836,0,1.657-.014,2.463-.058.115,0,.187-.029.187-.087a1.022,1.022,0,0,0-.346-.8,1.251,1.251,0,0,0-.85-.3A1.441,1.441,0,0,0,559.878,71.424Z" transform="translate(-529.11 -62.58)"/>
    <g id="Group_4" data-name="Group 4" transform="translate(0 16.232)">
      <path id="Path_11" data-name="Path 11" class="cls-4" d="M361.65,137.131c0-.694-.014-1.243-.014-1.648a.808.808,0,0,1,.3-.737,1.294,1.294,0,0,1,.792-.246,1.079,1.079,0,0,1,.72.231.766.766,0,0,1,.288.636v5.971l.014,2.675a.841.841,0,0,1-.3.708,1.215,1.215,0,0,1-.778.231,1.264,1.264,0,0,1-.792-.246.84.84,0,0,1-.288-.723c0-.116,0-.333.014-.651s.014-.564.014-.708l.029-4.077C361.664,138.288,361.664,137.825,361.65,137.131Z" transform="translate(-361.591 -134.5)"/>
      <path id="Path_12" data-name="Path 12" class="cls-4" d="M389.114,158.271a1.265,1.265,0,0,1,.245-.839,1.01,1.01,0,0,1,.807-.275.83.83,0,0,1,.936.737l.029.4a1.765,1.765,0,0,1,.821-.867,2.58,2.58,0,0,1,1.253-.333,2.465,2.465,0,0,1,1.973.8,3.283,3.283,0,0,1,.691,2.241c0,.2,0,.492-.014.867s-.014.723-.014,1.026v1.243c0,.636-.375.954-1.109.954a1.084,1.084,0,0,1-.706-.217.777.777,0,0,1-.274-.665c0-.246,0-.68.014-1.287s.014-1.07.014-1.359a3.061,3.061,0,0,0-.23-1.33.919.919,0,0,0-.879-.492,1.2,1.2,0,0,0-1.21.564,3.9,3.9,0,0,0-.317,1.749l.014,2.226a.729.729,0,0,1-.288.636,1.28,1.28,0,0,1-.72.2c-.706,0-1.052-.289-1.052-.867,0-.246.014-.824.029-1.692s.029-1.663.014-2.342Z" transform="translate(-385.138 -153.833)"/>
      <path id="Path_13" data-name="Path 13" class="cls-4" d="M440,146.578a.853.853,0,0,1,.23-.622.769.769,0,0,1,.591-.246h.619l.029-.94q.022-1.171,1.124-1.171a.757.757,0,0,1,.835.867c0,.159-.014.578-.029,1.243l1.095-.014c.562,0,.85.289.85.882a1.038,1.038,0,0,1-.187.636.638.638,0,0,1-.547.246h-1.2v2.3c0,.752.216,1.142.648,1.142a1.533,1.533,0,0,0,.36-.043,1.262,1.262,0,0,1,.288-.043.641.641,0,0,1,.519.246.932.932,0,0,1,.2.564.959.959,0,0,1-.375.867,2.467,2.467,0,0,1-1.282.26c-1.556,0-2.348-.925-2.348-2.776,0-.275,0-.694.014-1.258s.014-.983.014-1.243h-.677C440.259,147.475,440,147.171,440,146.578Z" transform="translate(-428.706 -142.284)"/>
      <path id="Path_14" data-name="Path 14" class="cls-4" d="M484.022,162.26a1.554,1.554,0,0,0,1.023.361,2.387,2.387,0,0,0,1.268-.347,1.457,1.457,0,0,1,.677-.217.756.756,0,0,1,.591.289,1.025,1.025,0,0,1,.245.694.918.918,0,0,1-.519.81,4.531,4.531,0,0,1-2.434.564,3.375,3.375,0,0,1-2.449-1,3.243,3.243,0,0,1-1.023-2.4,3.859,3.859,0,0,1,1.023-2.718,3.364,3.364,0,0,1,2.521-1.1,3.176,3.176,0,0,1,2.247.853,2.634,2.634,0,0,1,.893,1.966,1.543,1.543,0,0,1-.23.969,1.292,1.292,0,0,1-.965.3c-.634.014-1.772.029-3.4.043A1.486,1.486,0,0,0,484.022,162.26Zm-.043-3.051a1.3,1.3,0,0,0-.461.867c.835,0,1.656-.014,2.463-.058.115,0,.187-.029.187-.087a1.021,1.021,0,0,0-.346-.8,1.25,1.25,0,0,0-.85-.3A1.511,1.511,0,0,0,483.978,159.21Z" transform="translate(-464.142 -153.918)"/>
      <path id="Path_15" data-name="Path 15" class="cls-4" d="M536.937,157.358a.729.729,0,0,1,.778.593l.086.607a2,2,0,0,1,.778-.911,1.915,1.915,0,0,1,1.08-.347c.619,0,.922.318.922.954a1.18,1.18,0,0,1-.216.708.688.688,0,0,1-.6.289h-.23a1.427,1.427,0,0,0-1.167.535,2.553,2.553,0,0,0-.432,1.619c0,.087.014.434.029,1.07a7.5,7.5,0,0,1-.014,1.128c-.014.564-.36.853-1.037.853a.884.884,0,0,1-1.008-1.041c0-.39.014-1.012.029-1.865s.029-1.431.029-1.778c0-.159,0-.4-.014-.737s-.014-.578-.014-.737C535.929,157.661,536.26,157.358,536.937,157.358Z" transform="translate(-510.792 -154.004)"/>
      <path id="Path_16" data-name="Path 16" class="cls-4" d="M571.922,162.26a1.554,1.554,0,0,0,1.023.361,2.387,2.387,0,0,0,1.268-.347,1.458,1.458,0,0,1,.677-.217.756.756,0,0,1,.591.289,1.073,1.073,0,0,1,.245.694.918.918,0,0,1-.518.81,4.531,4.531,0,0,1-2.434.564,3.375,3.375,0,0,1-2.449-1,3.243,3.243,0,0,1-1.023-2.4,3.86,3.86,0,0,1,1.023-2.718,3.364,3.364,0,0,1,2.521-1.1,3.176,3.176,0,0,1,2.247.853,2.634,2.634,0,0,1,.893,1.966,1.543,1.543,0,0,1-.231.969,1.292,1.292,0,0,1-.965.3c-.634.014-1.772.029-3.4.043A1.423,1.423,0,0,0,571.922,162.26Zm-.043-3.051a1.3,1.3,0,0,0-.461.867c.835,0,1.656-.014,2.463-.058.115,0,.187-.029.187-.087a1.021,1.021,0,0,0-.346-.8,1.251,1.251,0,0,0-.85-.3A1.511,1.511,0,0,0,571.878,159.21Z" transform="translate(-539.381 -153.918)"/>
      <path id="Path_17" data-name="Path 17" class="cls-4" d="M627.355,157.361a.741.741,0,0,1,.533.694c0,.593-.259.882-.792.882a3.505,3.505,0,0,1-.778-.174,3.5,3.5,0,0,0-.965-.173,1.455,1.455,0,0,0-.735.173.531.531,0,0,0-.3.477.36.36,0,0,0,.014.13.233.233,0,0,0,.058.1.382.382,0,0,0,.086.072.563.563,0,0,0,.13.058c.058.014.1.029.144.043a1.486,1.486,0,0,0,.173.043.989.989,0,0,0,.187.029l.2.029c.086.014.158.014.216.029a4.382,4.382,0,0,1,1.93.651,1.666,1.666,0,0,1,.677,1.46,2.071,2.071,0,0,1-.792,1.72,3.477,3.477,0,0,1-2.2.622,5.22,5.22,0,0,1-1.916-.318c-.547-.2-.821-.463-.821-.766,0-.651.274-.969.807-.969a3.679,3.679,0,0,1,.936.188,4.169,4.169,0,0,0,1.2.188,1.284,1.284,0,0,0,.663-.159.5.5,0,0,0,.259-.448.416.416,0,0,0-.274-.434,5,5,0,0,0-1.023-.246,6.452,6.452,0,0,1-.922-.188,3.6,3.6,0,0,1-.778-.333,1.588,1.588,0,0,1-.591-.564,1.718,1.718,0,0,1-.2-.839,2.058,2.058,0,0,1,.85-1.677,3.251,3.251,0,0,1,2.017-.665A5.474,5.474,0,0,1,627.355,157.361Z" transform="translate(-584.832 -153.747)"/>
      <path id="Path_18" data-name="Path 18" class="cls-4" d="M675.274,162c0,.39.014.969.058,1.749,0,.578-.346.867-1.052.867a.717.717,0,0,1-.576-.246,2.061,2.061,0,0,1-.331-.81,2.207,2.207,0,0,1-2.031,1.1,3.184,3.184,0,0,1-2.42-.969,3.391,3.391,0,0,1-.922-2.443,3.7,3.7,0,0,1,1.008-2.7,3.382,3.382,0,0,1,2.535-1.041,2.123,2.123,0,0,1,1.873.94,3.531,3.531,0,0,1,.13-.477.8.8,0,0,1,.792-.419.861.861,0,0,1,.965.983l-.014,1.186Zm-4.739.4a1.4,1.4,0,0,0,1.066.492,1.6,1.6,0,0,0,1.21-.506,1.853,1.853,0,0,0,.49-1.316,1.8,1.8,0,0,0-.475-1.316,1.548,1.548,0,0,0-1.123-.492,1.428,1.428,0,0,0-1.152.52,2.123,2.123,0,0,0-.447,1.4A1.74,1.74,0,0,0,670.535,162.4Z" transform="translate(-623.864 -154.175)"/>
      <path id="Path_19" data-name="Path 19" class="cls-4" d="M728.314,158.271a1.265,1.265,0,0,1,.245-.839,1.01,1.01,0,0,1,.807-.275.83.83,0,0,1,.936.737l.029.4a1.765,1.765,0,0,1,.821-.867,2.58,2.58,0,0,1,1.253-.333,2.465,2.465,0,0,1,1.973.8,3.283,3.283,0,0,1,.691,2.241c0,.2,0,.492-.014.867s-.014.723-.014,1.026v1.243c0,.636-.374.954-1.109.954a1.084,1.084,0,0,1-.706-.217.777.777,0,0,1-.274-.665c0-.246,0-.68.014-1.287s.014-1.07.014-1.359a3.061,3.061,0,0,0-.23-1.33.919.919,0,0,0-.879-.492,1.2,1.2,0,0,0-1.21.564,3.9,3.9,0,0,0-.317,1.749l.014,2.226a.729.729,0,0,1-.288.636,1.28,1.28,0,0,1-.72.2c-.706,0-1.052-.289-1.052-.867,0-.246.014-.824.029-1.692s.029-1.663.014-2.342Z" transform="translate(-675.478 -153.833)"/>
      <path id="Path_20" data-name="Path 20" class="cls-4" d="M780,146.578a.853.853,0,0,1,.23-.622.769.769,0,0,1,.591-.246h.619l.029-.94q.022-1.171,1.124-1.171a.757.757,0,0,1,.835.867c0,.159-.014.578-.029,1.243l1.095-.014c.562,0,.85.289.85.882a1.038,1.038,0,0,1-.187.636.638.638,0,0,1-.547.246h-1.2v2.3c0,.752.216,1.142.648,1.142a1.532,1.532,0,0,0,.36-.043,1.263,1.263,0,0,1,.288-.043.641.641,0,0,1,.519.246.931.931,0,0,1,.2.564.959.959,0,0,1-.375.867,2.466,2.466,0,0,1-1.282.26c-1.556,0-2.348-.925-2.348-2.776,0-.275,0-.694.014-1.258s.014-.983.014-1.243h-.677C780.259,147.475,780,147.171,780,146.578Z" transform="translate(-719.731 -142.284)"/>
      <path id="Path_21" data-name="Path 21" class="cls-4" d="M824.022,162.26a1.554,1.554,0,0,0,1.023.361,2.386,2.386,0,0,0,1.268-.347,1.458,1.458,0,0,1,.677-.217.756.756,0,0,1,.591.289,1.073,1.073,0,0,1,.245.694.918.918,0,0,1-.519.81,4.531,4.531,0,0,1-2.434.564,3.375,3.375,0,0,1-2.449-1,3.243,3.243,0,0,1-1.023-2.4,3.86,3.86,0,0,1,1.023-2.718,3.364,3.364,0,0,1,2.521-1.1,3.176,3.176,0,0,1,2.247.853,2.634,2.634,0,0,1,.893,1.966,1.543,1.543,0,0,1-.23.969,1.292,1.292,0,0,1-.965.3c-.634.014-1.772.029-3.4.043A1.485,1.485,0,0,0,824.022,162.26Zm-.043-3.051a1.3,1.3,0,0,0-.461.867c.835,0,1.656-.014,2.463-.058.115,0,.187-.029.187-.087a1.022,1.022,0,0,0-.346-.8,1.251,1.251,0,0,0-.85-.3A1.511,1.511,0,0,0,823.978,159.21Z" transform="translate(-755.168 -153.918)"/>
    </g>
  </g>
</svg>
